<svg data-v-fde0c5aa="" xmlns="http://www.w3.org/2000/svg" viewBox="0 0 300 300" class="iconLeft"><!----><defs data-v-fde0c5aa=""><!----></defs><rect data-v-fde0c5aa="" fill="transparent" x="0" y="0" width="300px" height="300px" class="logo-background-square"></rect><defs data-v-fde0c5aa=""><!----></defs><g data-v-fde0c5aa="" id="be8575c0-2a86-4634-ae42-3a66942bb90e" fill="#000000" transform="matrix(3.954730651305632,0,0,3.954730651305632,93.58492270876525,115.23791584012196)"><path d="M9.59 3.98L7.04 3.98L2.88 7.81L2.72 7.81L2.72 3.98L0.87 3.98L0.87 13.78L2.72 13.78L2.72 10.22L3.93 9.11L7.24 13.78L9.45 13.78L5.25 7.92ZM9.94 8.43L11.37 9.35C11.80 8.62 12.38 8.15 13.30 8.15C14.25 8.15 14.76 8.67 14.76 9.32L14.76 9.49L11.97 9.80C10.68 9.94 9.80 10.70 9.80 11.80C9.80 13.13 10.84 13.97 12.40 13.97C13.90 13.97 14.42 13.24 14.59 12.94L14.78 12.94L14.78 13.78L16.52 13.78L16.52 9.34C16.52 7.71 15.29 6.64 13.40 6.64C11.70 6.64 10.77 7.39 9.94 8.43ZM11.65 11.70C11.65 11.30 11.97 11.06 12.63 10.98L14.76 10.72L14.76 10.84C14.76 11.79 14.07 12.52 12.84 12.52C12.05 12.52 11.65 12.18 11.65 11.70ZM17.75 4.82C17.75 5.53 18.30 6.02 19.00 6.02C19.70 6.02 20.24 5.53 20.24 4.82C20.24 4.10 19.70 3.61 19.00 3.61C18.30 3.61 17.75 4.10 17.75 4.82ZM19.88 6.83L18.12 6.83L18.12 13.78L19.88 13.78ZM23.30 6.83L21.56 6.83L21.56 13.78L23.32 13.78L23.32 9.88C23.32 8.90 23.97 8.43 24.86 8.43L25.90 8.43L25.90 6.80L25.20 6.80C24.32 6.80 23.73 7.07 23.46 7.84L23.30 7.84ZM33.85 3.98L32.09 3.98L32.09 7.81L31.92 7.81C31.56 7.22 30.94 6.64 29.71 6.64C27.97 6.64 26.52 8.18 26.52 10.30C26.52 12.43 27.97 13.97 29.71 13.97C30.94 13.97 31.56 13.38 31.92 12.80L32.12 12.80L32.12 13.78L33.85 13.78ZM30.18 8.20C31.28 8.20 32.09 8.99 32.09 10.30C32.09 11.62 31.28 12.40 30.18 12.40C29.12 12.40 28.28 11.65 28.28 10.30C28.28 8.96 29.12 8.20 30.18 8.20ZM35.11 10.25C35.11 12.40 36.61 13.97 38.68 13.97C40.54 13.97 41.36 12.99 41.83 12.26L40.32 11.40C40.08 11.89 39.63 12.43 38.65 12.43C37.65 12.43 36.99 11.72 36.95 10.82L42.08 10.82L42.08 10.14C42.08 8.05 40.67 6.64 38.65 6.64C36.61 6.64 35.11 8.15 35.11 10.25ZM36.96 9.59C37.07 8.76 37.65 8.18 38.64 8.18C39.55 8.18 40.17 8.74 40.26 9.59Z"></path></g><defs data-v-fde0c5aa=""><linearGradient data-v-fde0c5aa="" gradientTransform="rotate(25)" id="3e9ca94f-c265-49fe-b68d-671275be7471" x1="0%" y1="0%" x2="100%" y2="0%"><stop data-v-fde0c5aa="" offset="0%" stop-color="#000A68" stop-opacity="1"></stop><stop data-v-fde0c5aa="" offset="100%" stop-color="#00C4EE" stop-opacity="1"></stop></linearGradient></defs><g data-v-fde0c5aa="" id="5ce8be11-1d38-44a2-aa54-4f36d910cd04" stroke="none" fill="url(#3e9ca94f-c265-49fe-b68d-671275be7471)" transform="matrix(0.6836097541584858,0,0,0.6836097541584858,27.831745593649675,115.8536922582308)"><switch><g><path d="M37.6 50L50 65.6 62.4 50 49.8 34.4zM26.1 20.4l5.4 6.8 5.4-6.8-5.5-6.8zM63.1 79.6l5.4 6.8 5.4-6.8-5.5-6.8z"></path><path d="M71.8 5H28.2c-5.8 0-10.4 4.7-10.4 10.4v69.1c0 5.8 4.7 10.4 10.4 10.4h43.6c5.8 0 10.4-4.7 10.4-10.4V15.4C82.3 9.7 77.6 5 71.8 5zm7.1 79.6c0 3.9-3.2 7-7 7H28.2c-3.9 0-7-3.2-7-7V15.4c0-3.9 3.2-7 7-7h43.6c3.9 0 7 3.2 7 7v69.2z"></path></g></switch></g><!----></svg>