<svg data-v-fde0c5aa="" xmlns="http://www.w3.org/2000/svg" viewBox="0 0 300 300" class="iconLeftSlogan"><!----><defs data-v-fde0c5aa=""><!----></defs><rect data-v-fde0c5aa="" fill="#F3F3EF" x="0" y="0" width="300px" height="300px" class="logo-background-square"></rect><defs data-v-fde0c5aa=""><!----></defs><g data-v-fde0c5aa="" id="099ccee6-9211-48eb-b479-2f81ddc009b9" fill="#2A2F1F" transform="matrix(3.5031747139845275,0,0,3.5031747139845275,108.73291478106404,121.80100741200773)"><path d="M9.03 10.19L6.80 10.19L4.38 5.82L2.93 6.66L2.24 10.19L0.25 10.19L2.11 0.56L4.13 0.56L3.24 4.93L8.44 0.56L10.96 0.56L5.85 4.77L9.03 10.19ZM17.49 9.05L17.39 10.11L17.39 10.11Q17.10 10.22 16.81 10.24L16.81 10.24L16.81 10.24Q16.52 10.26 16.21 10.26L16.21 10.26L16.21 10.26Q15.52 10.26 15.16 9.97L15.16 9.97L15.16 9.97Q14.79 9.69 14.79 9.21L14.79 9.21L14.79 9.21Q14.79 9.11 14.79 9.00L14.79 9.00L14.79 9.00Q14.80 8.89 14.82 8.78L14.82 8.78L14.78 8.78L14.78 8.78Q14.55 9.14 14.31 9.43L14.31 9.43L14.31 9.43Q14.07 9.71 13.78 9.92L13.78 9.92L13.78 9.92Q13.49 10.12 13.13 10.22L13.13 10.22L13.13 10.22Q12.76 10.33 12.28 10.33L12.28 10.33L12.28 10.33Q11.74 10.33 11.35 10.16L11.35 10.16L11.35 10.16Q10.96 9.99 10.70 9.70L10.70 9.70L10.70 9.70Q10.44 9.42 10.31 9.05L10.31 9.05L10.31 9.05Q10.18 8.68 10.18 8.29L10.18 8.29L10.18 8.29Q10.18 7.74 10.33 7.33L10.33 7.33L10.33 7.33Q10.49 6.93 10.75 6.64L10.75 6.64L10.75 6.64Q11.02 6.36 11.38 6.18L11.38 6.18L11.38 6.18Q11.74 6.00 12.15 5.89L12.15 5.89L12.15 5.89Q12.56 5.79 13.00 5.75L13.00 5.75L13.00 5.75Q13.45 5.71 13.88 5.70L13.88 5.70L15.18 5.68L15.24 5.43L15.24 5.43Q15.29 5.23 15.31 5.08L15.31 5.08L15.31 5.08Q15.33 4.92 15.33 4.79L15.33 4.79L15.33 4.79Q15.33 4.33 15.09 4.12L15.09 4.12L15.09 4.12Q14.86 3.91 14.46 3.91L14.46 3.91L14.46 3.91Q14.26 3.91 14.05 3.94L14.05 3.94L14.05 3.94Q13.84 3.96 13.65 4.06L13.65 4.06L13.65 4.06Q13.46 4.16 13.31 4.36L13.31 4.36L13.31 4.36Q13.15 4.55 13.07 4.88L13.07 4.88L11.27 4.67L11.27 4.67Q11.38 4.21 11.63 3.84L11.63 3.84L11.63 3.84Q11.87 3.47 12.27 3.21L12.27 3.21L12.27 3.21Q12.67 2.95 13.22 2.80L13.22 2.80L13.22 2.80Q13.77 2.66 14.49 2.66L14.49 2.66L14.49 2.66Q15.91 2.66 16.57 3.16L16.57 3.16L16.57 3.16Q17.23 3.66 17.23 4.68L17.23 4.68L17.23 4.68Q17.23 4.89 17.17 5.18L17.17 5.18L17.17 5.18Q17.12 5.48 17.06 5.75L17.06 5.75L16.58 8.16L16.58 8.16Q16.56 8.28 16.54 8.41L16.54 8.41L16.54 8.41Q16.52 8.54 16.52 8.65L16.52 8.65L16.52 8.65Q16.52 8.82 16.59 8.91L16.59 8.91L16.59 8.91Q16.66 9.00 16.75 9.04L16.75 9.04L16.75 9.04Q16.84 9.08 16.93 9.09L16.93 9.09L16.93 9.09Q17.01 9.10 17.06 9.10L17.06 9.10L17.06 9.10Q17.16 9.10 17.24 9.09L17.24 9.09L17.24 9.09Q17.33 9.08 17.49 9.05L17.49 9.05ZM14.82 7.38L14.97 6.75L13.86 6.75L13.86 6.75Q13.06 6.77 12.60 7.08L12.60 7.08L12.60 7.08Q12.14 7.40 12.14 7.97L12.14 7.97L12.14 7.97Q12.14 8.24 12.22 8.43L12.22 8.43L12.22 8.43Q12.30 8.63 12.44 8.75L12.44 8.75L12.44 8.75Q12.58 8.87 12.76 8.93L12.76 8.93L12.76 8.93Q12.94 8.99 13.14 8.99L13.14 8.99L13.14 8.99Q13.34 8.99 13.58 8.91L13.58 8.91L13.58 8.91Q13.82 8.83 14.06 8.65L14.06 8.65L14.06 8.65Q14.29 8.46 14.50 8.15L14.50 8.15L14.50 8.15Q14.70 7.84 14.82 7.38L14.82 7.38ZM21.75 1.46L19.82 1.46L20.10 0.05L22.03 0.05L21.75 1.46ZM20.05 10.19L18.14 10.19L19.57 2.80L21.49 2.80L20.05 10.19ZM27.87 2.75L27.56 4.36L27.56 4.36Q27.40 4.33 27.22 4.29L27.22 4.29L27.22 4.29Q27.04 4.26 26.78 4.26L26.78 4.26L26.78 4.26Q25.94 4.26 25.41 4.85L25.41 4.85L25.41 4.85Q24.88 5.45 24.64 6.68L24.64 6.68L23.95 10.19L22.03 10.19L23.13 4.52L23.13 4.52Q23.17 4.28 23.21 4.04L23.21 4.04L23.21 4.04Q23.26 3.80 23.29 3.58L23.29 3.58L23.29 3.58Q23.33 3.35 23.36 3.15L23.36 3.15L23.36 3.15Q23.39 2.95 23.41 2.80L23.41 2.80L25.25 2.80L25.25 2.80Q25.22 2.95 25.20 3.15L25.20 3.15L25.20 3.15Q25.18 3.36 25.15 3.57L25.15 3.57L25.15 3.57Q25.12 3.78 25.09 3.98L25.09 3.98L25.09 3.98Q25.06 4.17 25.04 4.31L25.04 4.31L25.07 4.31L25.07 4.31Q25.30 3.88 25.53 3.57L25.53 3.57L25.53 3.57Q25.76 3.26 26.01 3.06L26.01 3.06L26.01 3.06Q26.26 2.86 26.54 2.76L26.54 2.76L26.54 2.76Q26.82 2.66 27.17 2.66L27.17 2.66L27.17 2.66Q27.25 2.66 27.35 2.67L27.35 2.67L27.35 2.67Q27.45 2.68 27.55 2.69L27.55 2.69L27.55 2.69Q27.64 2.71 27.73 2.72L27.73 2.72L27.73 2.72Q27.82 2.74 27.87 2.75L27.87 2.75ZM32.38 9.10L32.35 9.10L32.35 9.10Q32.11 9.42 31.85 9.65L31.85 9.65L31.85 9.65Q31.59 9.88 31.30 10.04L31.30 10.04L31.30 10.04Q31.01 10.19 30.67 10.26L30.67 10.26L30.67 10.26Q30.32 10.34 29.91 10.34L29.91 10.34L29.91 10.34Q29.37 10.34 28.94 10.14L28.94 10.14L28.94 10.14Q28.51 9.95 28.22 9.61L28.22 9.61L28.22 9.61Q27.93 9.27 27.78 8.80L27.78 8.80L27.78 8.80Q27.63 8.33 27.63 7.77L27.63 7.77L27.63 7.77Q27.63 7.46 27.66 7.11L27.66 7.11L27.66 7.11Q27.69 6.75 27.77 6.32L27.77 6.32L27.77 6.32Q27.97 5.35 28.30 4.66L28.30 4.66L28.30 4.66Q28.63 3.96 29.07 3.52L29.07 3.52L29.07 3.52Q29.51 3.08 30.05 2.87L30.05 2.87L30.05 2.87Q30.59 2.66 31.20 2.66L31.20 2.66L31.20 2.66Q31.70 2.66 32.06 2.77L32.06 2.77L32.06 2.77Q32.43 2.87 32.69 3.06L32.69 3.06L32.69 3.06Q32.94 3.24 33.10 3.49L33.10 3.49L33.10 3.49Q33.26 3.73 33.35 4.01L33.35 4.01L33.38 4.01L33.38 4.01Q33.39 3.88 33.43 3.60L33.43 3.60L33.43 3.60Q33.48 3.33 33.56 2.91L33.56 2.91L34.13 0.05L36.03 0.05L34.40 8.61L34.40 8.61Q34.32 9.03 34.28 9.43L34.28 9.43L34.28 9.43Q34.23 9.82 34.20 10.19L34.20 10.19L32.28 10.19L32.28 10.19Q32.28 10.14 32.28 10.03L32.28 10.03L32.28 10.03Q32.29 9.92 32.30 9.77L32.30 9.77L32.30 9.77Q32.31 9.62 32.33 9.45L32.33 9.45L32.33 9.45Q32.35 9.28 32.38 9.10L32.38 9.10ZM30.75 9.02L30.75 9.02L30.75 9.02Q31.12 9.02 31.44 8.90L31.44 8.90L31.44 8.90Q31.77 8.79 32.04 8.51L32.04 8.51L32.04 8.51Q32.31 8.24 32.53 7.77L32.53 7.77L32.53 7.77Q32.74 7.30 32.87 6.59L32.87 6.59L32.87 6.59Q32.93 6.29 32.96 6.03L32.96 6.03L32.96 6.03Q32.99 5.76 32.99 5.54L32.99 5.54L32.99 5.54Q32.99 4.72 32.67 4.34L32.67 4.34L32.67 4.34Q32.35 3.97 31.71 3.97L31.71 3.97L31.71 3.97Q31.38 3.97 31.09 4.08L31.09 4.08L31.09 4.08Q30.80 4.19 30.55 4.46L30.55 4.46L30.55 4.46Q30.30 4.73 30.11 5.19L30.11 5.19L30.11 5.19Q29.91 5.64 29.78 6.33L29.78 6.33L29.78 6.33Q29.72 6.68 29.69 6.96L29.69 6.96L29.69 6.96Q29.66 7.25 29.66 7.51L29.66 7.51L29.66 7.51Q29.66 8.23 29.92 8.62L29.92 8.62L29.92 8.62Q30.18 9.02 30.75 9.02ZM43.02 6.94L38.23 6.94L38.23 6.94Q38.21 7.09 38.20 7.24L38.20 7.24L38.20 7.24Q38.19 7.39 38.19 7.55L38.19 7.55L38.19 7.55Q38.19 8.27 38.50 8.66L38.50 8.66L38.50 8.66Q38.82 9.04 39.44 9.04L39.44 9.04L39.44 9.04Q39.73 9.04 39.96 8.96L39.96 8.96L39.96 8.96Q40.18 8.87 40.36 8.71L40.36 8.71L40.36 8.71Q40.54 8.56 40.67 8.35L40.67 8.35L40.67 8.35Q40.80 8.13 40.90 7.89L40.90 7.89L42.57 8.39L42.57 8.39Q42.37 8.83 42.11 9.19L42.11 9.19L42.11 9.19Q41.85 9.55 41.47 9.80L41.47 9.80L41.47 9.80Q41.10 10.06 40.57 10.19L40.57 10.19L40.57 10.19Q40.04 10.33 39.31 10.33L39.31 10.33L39.31 10.33Q38.56 10.33 37.98 10.12L37.98 10.12L37.98 10.12Q37.41 9.91 37.01 9.52L37.01 9.52L37.01 9.52Q36.62 9.13 36.42 8.57L36.42 8.57L36.42 8.57Q36.22 8.02 36.22 7.33L36.22 7.33L36.22 7.33Q36.22 6.21 36.51 5.35L36.51 5.35L36.51 5.35Q36.81 4.48 37.34 3.88L37.34 3.88L37.34 3.88Q37.87 3.28 38.60 2.97L38.60 2.97L38.60 2.97Q39.33 2.66 40.20 2.66L40.20 2.66L40.20 2.66Q40.97 2.66 41.53 2.86L41.53 2.86L41.53 2.86Q42.09 3.07 42.46 3.44L42.46 3.44L42.46 3.44Q42.83 3.81 43.00 4.33L43.00 4.33L43.00 4.33Q43.18 4.85 43.18 5.47L43.18 5.47L43.18 5.47Q43.18 5.78 43.14 6.18L43.14 6.18L43.14 6.18Q43.09 6.58 43.02 6.94L43.02 6.94ZM38.46 5.66L41.41 5.66L41.41 5.66Q41.42 5.55 41.42 5.46L41.42 5.46L41.42 5.46Q41.43 5.37 41.43 5.28L41.43 5.28L41.43 5.28Q41.43 4.55 41.09 4.21L41.09 4.21L41.09 4.21Q40.75 3.88 40.20 3.88L40.20 3.88L40.20 3.88Q39.97 3.88 39.71 3.95L39.71 3.95L39.71 3.95Q39.45 4.03 39.21 4.23L39.21 4.23L39.21 4.23Q38.96 4.43 38.77 4.77L38.77 4.77L38.77 4.77Q38.58 5.12 38.46 5.66L38.46 5.66Z"></path></g><defs data-v-fde0c5aa=""><linearGradient data-v-fde0c5aa="" gradientTransform="rotate(25)" id="9a705348-fc89-4c94-8ce1-713456152d50" x1="0%" y1="0%" x2="100%" y2="0%"><stop data-v-fde0c5aa="" offset="0%" stop-color="#945069" stop-opacity="1"></stop><stop data-v-fde0c5aa="" offset="100%" stop-color="#86C866" stop-opacity="1"></stop></linearGradient></defs><g data-v-fde0c5aa="" id="366cdca9-5be9-4a14-b33c-4567742b88e0" stroke="none" fill="url(#9a705348-fc89-4c94-8ce1-713456152d50)" transform="matrix(0.8789958438831006,0,0,0.8789958438831006,24.353872972949898,106.09415692741852)"><switch><g><path d="M37.6 50L50 65.6 62.4 50 49.8 34.4zM26.1 20.4l5.4 6.8 5.4-6.8-5.5-6.8zM63.1 79.6l5.4 6.8 5.4-6.8-5.5-6.8z"></path><path d="M71.8 5H28.2c-5.8 0-10.4 4.7-10.4 10.4v69.1c0 5.8 4.7 10.4 10.4 10.4h43.6c5.8 0 10.4-4.7 10.4-10.4V15.4C82.3 9.7 77.6 5 71.8 5zm7.1 79.6c0 3.9-3.2 7-7 7H28.2c-3.9 0-7-3.2-7-7V15.4c0-3.9 3.2-7 7-7h43.6c3.9 0 7 3.2 7 7v69.2z"></path></g></switch></g><defs data-v-fde0c5aa=""><!----></defs><g data-v-fde0c5aa="" id="e307549a-b6ef-4127-8ebf-07c287f2af59" fill="#2A2F1F" transform="matrix(0.7651553762674685,0,0,0.7651553762674685,109.39446495329315,165.49882113143545)"><path d="M0.28 3.64L0.28 3.64L0.28 3.64Q0.28 3.51 0.40 3.49L0.40 3.49L0.40 3.49Q0.52 3.47 0.99 3.47L0.99 3.47L2.21 3.47L2.21 3.47Q2.56 3.47 3.50 3.44L3.50 3.44L3.50 3.44Q4.44 3.42 4.94 3.42L4.94 3.42L4.94 3.42Q5.91 3.42 6.87 3.71L6.87 3.71L6.87 3.71Q7.84 4.00 8.65 4.56L8.65 4.56L8.65 4.56Q9.46 5.11 9.97 6.00L9.97 6.00L9.97 6.00Q10.47 6.89 10.47 7.98L10.47 7.98L10.47 7.98Q10.47 8.96 10.34 9.68L10.34 9.68L10.34 9.68Q10.21 10.40 9.90 10.93L9.90 10.93L9.90 10.93Q9.59 11.45 9.28 11.78L9.28 11.78L9.28 11.78Q8.97 12.11 8.44 12.56L8.44 12.56L8.44 12.56Q8.02 12.89 7.22 13.19L7.22 13.19L7.22 13.19Q6.43 13.48 5.59 13.48L5.59 13.48L5.59 13.48Q5.50 13.48 4.16 13.45L4.16 13.45L4.16 13.45Q2.81 13.41 2.23 13.41L2.23 13.41L2.23 13.41Q1.74 13.41 1.32 13.45L1.32 13.45L1.32 13.45Q0.90 13.48 0.83 13.48L0.83 13.48L0.83 13.48Q0.49 13.48 0.49 13.30L0.49 13.30L0.49 13.30Q0.49 13.19 0.54 13.14L0.54 13.14L0.54 13.14Q0.59 13.09 0.75 13.05L0.75 13.05L0.75 13.05Q0.91 13.01 0.98 12.98L0.98 12.98L0.98 12.98Q1.20 12.88 1.39 12.61L1.39 12.61L1.39 12.61Q1.58 12.33 1.58 12.07L1.58 12.07L1.58 12.07Q1.58 11.28 1.59 10.07L1.59 10.07L1.59 10.07Q1.60 8.85 1.60 8.27L1.60 8.27L1.60 8.27Q1.60 7.77 1.59 6.70L1.59 6.70L1.59 6.70Q1.58 5.63 1.58 4.72L1.58 4.72L1.58 4.72Q1.58 4.48 1.35 4.23L1.35 4.23L1.35 4.23Q1.12 3.99 0.84 3.98L0.84 3.98L0.84 3.98Q0.64 3.96 0.55 3.95L0.55 3.95L0.55 3.95Q0.46 3.93 0.37 3.86L0.37 3.86L0.37 3.86Q0.28 3.78 0.28 3.64ZM2.76 11.47L2.76 11.47L2.76 11.47Q2.76 11.73 2.77 11.90L2.77 11.90L2.77 11.90Q2.77 12.07 2.82 12.21L2.82 12.21L2.82 12.21Q2.87 12.35 2.90 12.40L2.90 12.40L2.90 12.40Q2.93 12.46 3.07 12.53L3.07 12.53L3.07 12.53Q3.21 12.60 3.28 12.62L3.28 12.62L3.28 12.62Q3.36 12.64 3.61 12.71L3.61 12.71L3.61 12.71Q3.86 12.78 4.03 12.82L4.03 12.82L4.03 12.82Q4.52 12.96 5.05 12.96L5.05 12.96L5.33 12.96L5.33 12.96Q6.29 12.96 6.96 12.69L6.96 12.69L6.96 12.69Q7.63 12.42 8.25 11.83L8.25 11.83L8.25 11.83Q9.28 10.84 9.28 8.61L9.28 8.61L9.28 8.61Q9.28 7.49 8.84 6.58L8.84 6.58L8.84 6.58Q8.40 5.67 7.69 5.13L7.69 5.13L7.69 5.13Q6.97 4.59 6.15 4.30L6.15 4.30L6.15 4.30Q5.32 4.02 4.48 4.02L4.48 4.02L4.48 4.02Q4.10 4.02 3.93 4.02L3.93 4.02L3.93 4.02Q3.75 4.02 3.52 4.05L3.52 4.05L3.52 4.05Q3.29 4.09 3.21 4.11L3.21 4.11L3.21 4.11Q3.14 4.13 3.02 4.25L3.02 4.25L3.02 4.25Q2.91 4.37 2.89 4.45L2.89 4.45L2.89 4.45Q2.87 4.54 2.83 4.78L2.83 4.78L2.83 4.78Q2.80 5.03 2.80 5.21L2.80 5.21L2.80 5.21Q2.80 5.39 2.80 5.80L2.80 5.80L2.80 5.80Q2.80 6.10 2.79 7.24L2.79 7.24L2.79 7.24Q2.77 8.39 2.77 8.48L2.77 8.48L2.77 8.48Q2.77 9.32 2.77 10.30L2.77 10.30L2.77 10.30Q2.76 11.28 2.76 11.47ZM18.37 3.71L18.37 3.71L18.37 3.71Q18.37 3.50 18.76 3.50L18.76 3.50L18.76 3.50Q18.90 3.50 19.40 3.53L19.40 3.53L19.40 3.53Q19.91 3.56 20.34 3.56L20.34 3.56L20.34 3.56Q20.61 3.56 20.85 3.54L20.85 3.54L20.85 3.54Q21.10 3.53 21.57 3.53L21.57 3.53L21.57 3.53Q21.95 3.53 21.95 3.72L21.95 3.72L21.95 3.72Q21.95 3.84 21.31 4.10L21.31 4.10L21.31 4.10Q20.86 4.28 20.86 5.71L20.86 5.71L20.86 5.71Q20.86 7.60 20.84 9.05L20.84 9.05L20.84 9.05Q20.82 10.50 20.82 10.89L20.82 10.89L20.82 10.89Q20.82 12.07 21.17 12.59L21.17 12.59L21.17 12.59Q21.48 13.02 21.84 13.02L21.84 13.02L21.84 13.02Q21.87 13.02 21.98 13.03L21.98 13.03L21.98 13.03Q22.09 13.03 22.12 13.03L22.12 13.03L22.12 13.03Q22.22 13.03 22.32 13.08L22.32 13.08L22.32 13.08Q22.41 13.13 22.41 13.19L22.41 13.19L22.41 13.19Q22.41 13.34 22.34 13.39L22.34 13.39L22.34 13.39Q22.26 13.44 22.06 13.44L22.06 13.44L22.06 13.44Q21.64 13.44 21.29 13.41L21.29 13.41L21.29 13.41Q20.93 13.38 20.73 13.38L20.73 13.38L20.73 13.38Q20.34 13.38 19.88 13.42L19.88 13.42L19.88 13.42Q19.42 13.45 19.19 13.45L19.19 13.45L19.19 13.45Q18.56 13.45 18.56 13.24L18.56 13.24L18.56 13.24Q18.56 13.12 18.70 13.07L18.70 13.07L18.70 13.07Q18.83 13.02 19.00 13.00L19.00 13.00L19.00 13.00Q19.17 12.98 19.35 12.82L19.35 12.82L19.35 12.82Q19.53 12.66 19.60 12.35L19.60 12.35L19.60 12.35Q19.63 12.25 19.69 10.76L19.69 10.76L19.69 10.76Q19.75 9.27 19.75 8.61L19.75 8.61L19.75 7.81L19.75 7.81Q19.75 7.63 19.76 7.12L19.76 7.12L19.76 7.12Q19.77 6.61 19.77 6.30L19.77 6.30L19.77 5.66L19.77 5.66Q19.77 5.04 19.71 4.63L19.71 4.63L19.71 4.63Q19.67 4.30 19.34 4.12L19.34 4.12L19.34 4.12Q19.01 3.93 18.66 3.92L18.66 3.92L18.66 3.92Q18.37 3.91 18.37 3.71ZM30.30 8.83L30.30 8.83L30.30 8.83Q30.30 7.31 30.91 6.09L30.91 6.09L30.91 6.09Q31.51 4.87 32.77 4.12L32.77 4.12L32.77 4.12Q34.03 3.37 35.77 3.37L35.77 3.37L35.77 3.37Q36.44 3.37 37.03 3.48L37.03 3.48L37.03 3.48Q37.62 3.58 38.00 3.72L38.00 3.72L38.00 3.72Q38.37 3.86 38.65 4.01L38.65 4.01L38.65 4.01Q38.93 4.16 39.08 4.26L39.08 4.26L39.08 4.26Q39.23 4.37 39.26 4.37L39.26 4.37L39.26 4.37Q39.30 4.37 39.45 4.26L39.45 4.26L39.45 4.26Q39.59 4.16 39.65 4.16L39.65 4.16L39.65 4.16Q39.86 4.16 39.86 4.44L39.86 4.44L39.86 4.44Q39.87 4.84 39.92 5.29L39.92 5.29L39.92 5.29Q39.97 5.74 40.01 6.03L40.01 6.03L40.01 6.03Q40.05 6.33 40.05 6.38L40.05 6.38L40.05 6.38Q40.05 6.62 39.89 6.62L39.89 6.62L39.89 6.62Q39.72 6.62 39.65 6.45L39.65 6.45L39.65 6.45Q39.16 5.39 38.01 4.65L38.01 4.65L38.01 4.65Q36.86 3.92 35.64 3.92L35.64 3.92L35.64 3.92Q33.89 3.92 32.75 5.02L32.75 5.02L32.75 5.02Q31.61 6.12 31.61 8.06L31.61 8.06L31.61 8.06Q31.61 9.35 32.09 10.49L32.09 10.49L32.09 10.49Q32.56 11.62 33.54 12.36L33.54 12.36L33.54 12.36Q34.51 13.10 35.77 13.10L35.77 13.10L35.77 13.10Q36.85 13.10 37.72 12.61L37.72 12.61L37.72 12.61Q38.60 12.12 38.70 11.49L38.70 11.49L38.70 11.49Q38.74 11.16 38.74 9.73L38.74 9.73L38.74 9.73Q38.74 9.18 38.50 8.95L38.50 8.95L38.50 8.95Q38.33 8.78 37.88 8.72L37.88 8.72L37.88 8.72Q37.46 8.68 37.39 8.55L37.39 8.55L37.39 8.55Q37.37 8.50 37.37 8.41L37.37 8.41L37.37 8.41Q37.37 8.26 37.62 8.26L37.62 8.26L37.62 8.26Q37.80 8.26 38.40 8.29L38.40 8.29L38.40 8.29Q39.00 8.33 39.17 8.33L39.17 8.33L39.17 8.33Q39.45 8.33 39.77 8.32L39.77 8.32L39.77 8.32Q40.10 8.32 40.29 8.32L40.29 8.32L40.50 8.32L40.50 8.32Q40.73 8.32 40.73 8.44L40.73 8.44L40.73 8.44Q40.73 8.54 40.37 8.69L40.37 8.69L40.37 8.69Q40.01 8.85 39.97 9.09L39.97 9.09L39.97 9.09Q39.87 9.69 39.87 10.65L39.87 10.65L39.87 10.65Q39.87 11.07 39.89 11.40L39.89 11.40L39.89 11.40Q39.90 11.72 39.91 11.85L39.91 11.85L39.91 11.85Q39.91 11.98 39.93 12.08L39.93 12.08L39.93 12.08Q39.94 12.18 39.94 12.22L39.94 12.22L39.94 12.22Q39.94 12.29 39.84 12.33L39.84 12.33L39.84 12.33Q39.73 12.36 39.49 12.42L39.49 12.42L39.49 12.42Q39.26 12.49 39.06 12.60L39.06 12.60L38.96 12.66L38.96 12.66Q38.86 12.73 38.77 12.78L38.77 12.78L38.77 12.78Q38.67 12.84 38.51 12.92L38.51 12.92L38.51 12.92Q38.35 13.01 38.18 13.09L38.18 13.09L38.18 13.09Q38.01 13.17 37.80 13.26L37.80 13.26L37.80 13.26Q37.59 13.36 37.37 13.43L37.37 13.43L37.37 13.43Q37.14 13.50 36.90 13.55L36.90 13.55L36.90 13.55Q36.67 13.61 36.41 13.64L36.41 13.64L36.41 13.64Q36.15 13.68 35.90 13.68L35.90 13.68L35.90 13.68Q34.37 13.68 33.24 13.26L33.24 13.26L33.24 13.26Q32.12 12.85 31.50 12.14L31.50 12.14L31.50 12.14Q30.88 11.44 30.59 10.61L30.59 10.61L30.59 10.61Q30.30 9.79 30.30 8.83ZM48.41 3.71L48.41 3.71L48.41 3.71Q48.41 3.50 48.80 3.50L48.80 3.50L48.80 3.50Q48.94 3.50 49.45 3.53L49.45 3.53L49.45 3.53Q49.95 3.56 50.39 3.56L50.39 3.56L50.39 3.56Q50.65 3.56 50.90 3.54L50.90 3.54L50.90 3.54Q51.14 3.53 51.62 3.53L51.62 3.53L51.62 3.53Q52.00 3.53 52.00 3.72L52.00 3.72L52.00 3.72Q52.00 3.84 51.35 4.10L51.35 4.10L51.35 4.10Q50.90 4.28 50.90 5.71L50.90 5.71L50.90 5.71Q50.90 7.60 50.88 9.05L50.88 9.05L50.88 9.05Q50.86 10.50 50.86 10.89L50.86 10.89L50.86 10.89Q50.86 12.07 51.21 12.59L51.21 12.59L51.21 12.59Q51.52 13.02 51.88 13.02L51.88 13.02L51.88 13.02Q51.91 13.02 52.02 13.03L52.02 13.03L52.02 13.03Q52.14 13.03 52.16 13.03L52.16 13.03L52.16 13.03Q52.26 13.03 52.36 13.08L52.36 13.08L52.36 13.08Q52.46 13.13 52.46 13.19L52.46 13.19L52.46 13.19Q52.46 13.34 52.38 13.39L52.38 13.39L52.38 13.39Q52.30 13.44 52.11 13.44L52.11 13.44L52.11 13.44Q51.69 13.44 51.33 13.41L51.33 13.41L51.33 13.41Q50.97 13.38 50.78 13.38L50.78 13.38L50.78 13.38Q50.39 13.38 49.92 13.42L49.92 13.42L49.92 13.42Q49.46 13.45 49.24 13.45L49.24 13.45L49.24 13.45Q48.61 13.45 48.61 13.24L48.61 13.24L48.61 13.24Q48.61 13.12 48.74 13.07L48.74 13.07L48.74 13.07Q48.87 13.02 49.04 13.00L49.04 13.00L49.04 13.00Q49.21 12.98 49.39 12.82L49.39 12.82L49.39 12.82Q49.57 12.66 49.64 12.35L49.64 12.35L49.64 12.35Q49.67 12.25 49.73 10.76L49.73 10.76L49.73 10.76Q49.80 9.27 49.80 8.61L49.80 8.61L49.80 7.81L49.80 7.81Q49.80 7.63 49.80 7.12L49.80 7.12L49.80 7.12Q49.81 6.61 49.81 6.30L49.81 6.30L49.81 5.66L49.81 5.66Q49.81 5.04 49.76 4.63L49.76 4.63L49.76 4.63Q49.71 4.30 49.38 4.12L49.38 4.12L49.38 4.12Q49.06 3.93 48.71 3.92L48.71 3.92L48.71 3.92Q48.41 3.91 48.41 3.71ZM60.00 5.32L60.00 5.32L60.00 5.32Q60.00 4.76 60.14 3.88L60.14 3.88L60.14 3.88Q60.14 3.85 60.15 3.78L60.15 3.78L60.15 3.78Q60.16 3.71 60.16 3.69L60.16 3.69L60.16 3.69Q60.17 3.67 60.18 3.62L60.18 3.62L60.18 3.62Q60.19 3.57 60.20 3.55L60.20 3.55L60.20 3.55Q60.21 3.53 60.23 3.49L60.23 3.49L60.23 3.49Q60.26 3.46 60.28 3.44L60.28 3.44L60.28 3.44Q60.31 3.43 60.35 3.42L60.35 3.42L60.35 3.42Q60.40 3.40 60.45 3.39L60.45 3.39L60.45 3.39Q60.51 3.39 60.58 3.39L60.58 3.39L60.58 3.39Q60.80 3.39 61.76 3.44L61.76 3.44L61.76 3.44Q62.72 3.50 64.53 3.50L64.53 3.50L64.53 3.50Q67.61 3.50 68.84 3.43L68.84 3.43L68.84 3.43Q68.85 3.43 68.89 3.42L68.89 3.42L68.89 3.42Q68.92 3.42 68.94 3.42L68.94 3.42L68.94 3.42Q69.09 3.42 69.15 3.50L69.15 3.50L69.15 3.50Q69.20 3.58 69.20 3.65L69.20 3.65L69.20 3.65Q69.20 3.75 69.24 4.24L69.24 4.24L69.24 4.24Q69.29 4.73 69.29 4.79L69.29 4.79L69.29 4.79Q69.29 5.14 69.24 5.23L69.24 5.23L69.24 5.23Q69.20 5.32 69.06 5.32L69.06 5.32L69.06 5.32Q68.95 5.32 68.91 5.15L68.91 5.15L68.91 5.15Q68.80 4.75 68.71 4.60L68.71 4.60L68.71 4.60Q68.63 4.45 68.35 4.34L68.35 4.34L68.35 4.34Q68.07 4.23 67.49 4.23L67.49 4.23L65.67 4.23L65.67 4.23Q65.34 4.23 65.26 4.36L65.26 4.36L65.26 4.36Q65.18 4.49 65.18 5.12L65.18 5.12L65.18 5.81L65.18 5.81Q65.18 7.69 65.16 9.11L65.16 9.11L65.16 9.11Q65.14 10.54 65.14 10.93L65.14 10.93L65.14 10.93Q65.14 11.13 65.13 11.43L65.13 11.43L65.13 11.43Q65.13 11.73 65.13 11.84L65.13 11.84L65.13 11.84Q65.13 12.45 65.32 12.64L65.32 12.64L65.32 12.64Q65.51 12.81 65.73 12.90L65.73 12.90L65.73 12.90Q65.95 12.99 66.11 13.01L66.11 13.01L66.11 13.01Q66.28 13.02 66.39 13.08L66.39 13.08L66.39 13.08Q66.50 13.13 66.50 13.26L66.50 13.26L66.50 13.26Q66.50 13.41 66.43 13.45L66.43 13.45L66.43 13.45Q66.36 13.50 66.16 13.50L66.16 13.50L66.16 13.50Q66.00 13.50 65.42 13.44L65.42 13.44L65.42 13.44Q64.85 13.38 64.61 13.38L64.61 13.38L64.61 13.38Q64.44 13.38 63.93 13.43L63.93 13.43L63.93 13.43Q63.42 13.48 63.18 13.48L63.18 13.48L63.18 13.48Q62.66 13.48 62.66 13.26L62.66 13.26L62.66 13.26Q62.66 13.12 62.75 13.07L62.75 13.07L62.75 13.07Q62.83 13.02 63.08 12.98L63.08 12.98L63.08 12.98Q63.32 12.95 63.39 12.94L63.39 12.94L63.39 12.94Q63.87 12.82 63.92 12.38L63.92 12.38L63.92 12.38Q64.06 11.14 64.06 7.08L64.06 7.08L64.05 4.58L64.05 4.58Q64.05 4.31 63.90 4.25L63.90 4.25L63.90 4.25Q63.74 4.19 62.99 4.19L62.99 4.19L62.99 4.19Q62.01 4.19 61.51 4.24L61.51 4.24L61.51 4.24Q61.01 4.30 60.93 4.35L60.93 4.35L60.93 4.35Q60.84 4.40 60.73 4.54L60.73 4.54L60.73 4.54Q60.61 4.70 60.53 4.91L60.53 4.91L60.53 4.91Q60.45 5.11 60.43 5.24L60.43 5.24L60.43 5.24Q60.41 5.38 60.35 5.47L60.35 5.47L60.35 5.47Q60.28 5.56 60.16 5.56L60.16 5.56L60.16 5.56Q60.00 5.56 60.00 5.32ZM75.61 13.33L75.61 13.33L75.61 13.33Q75.61 13.13 75.82 13.06L75.82 13.06L75.82 13.06Q76.27 12.89 76.61 12.31L76.61 12.31L76.61 12.31Q76.94 11.73 78.27 8.83L78.27 8.83L78.27 8.83Q79.65 5.87 80.70 3.63L80.70 3.63L80.70 3.63Q80.79 3.42 80.87 3.36L80.87 3.36L80.87 3.36Q80.95 3.30 81.12 3.30L81.12 3.30L81.12 3.30Q81.24 3.30 81.28 3.36L81.28 3.36L81.28 3.36Q81.33 3.42 81.47 3.82L81.47 3.82L81.47 3.82Q81.55 4.06 81.61 4.23L81.61 4.23L81.61 4.23Q81.68 4.40 81.82 4.77L81.82 4.77L81.82 4.77Q81.96 5.15 82.12 5.56L82.12 5.56L82.12 5.56Q82.57 6.66 83.67 9.22L83.67 9.22L83.67 9.22Q84.77 11.77 84.87 11.98L84.87 11.98L84.87 11.98Q85.11 12.46 85.40 12.71L85.40 12.71L85.40 12.71Q85.69 12.95 85.91 12.97L85.91 12.97L85.91 12.97Q86.13 12.99 86.28 13.04L86.28 13.04L86.28 13.04Q86.42 13.09 86.42 13.26L86.42 13.26L86.42 13.26Q86.42 13.47 86.04 13.47L86.04 13.47L86.04 13.47Q85.89 13.47 85.44 13.43L85.44 13.43L85.44 13.43Q84.99 13.38 84.78 13.38L84.78 13.38L84.78 13.38Q84.52 13.38 84.10 13.41L84.10 13.41L84.10 13.41Q83.68 13.44 83.48 13.44L83.48 13.44L83.48 13.44Q83.05 13.44 82.93 13.40L82.93 13.40L82.93 13.40Q82.81 13.37 82.81 13.24L82.81 13.24L82.81 13.24Q82.81 13.15 82.92 13.08L82.92 13.08L82.92 13.08Q83.03 13.02 83.16 13.00L83.16 13.00L83.16 13.00Q83.29 12.98 83.40 12.87L83.40 12.87L83.40 12.87Q83.51 12.77 83.51 12.59L83.51 12.59L83.51 12.59Q83.51 12.28 83.16 11.33L83.16 11.33L83.16 11.33Q82.81 10.37 82.57 9.93L82.57 9.93L82.57 9.93Q82.45 9.69 82.00 9.69L82.00 9.69L82.00 9.69Q81.93 9.69 81.38 9.70L81.38 9.70L81.38 9.70Q80.84 9.72 80.30 9.72L80.30 9.72L79.56 9.72L79.56 9.72Q78.93 9.72 78.77 9.79L78.77 9.79L78.77 9.79Q78.61 9.86 78.48 10.12L78.48 10.12L78.48 10.12Q78.40 10.30 78.20 10.70L78.20 10.70L78.20 10.70Q78.01 11.10 77.94 11.26L77.94 11.26L77.94 11.26Q77.87 11.41 77.76 11.65L77.76 11.65L77.76 11.65Q77.66 11.90 77.62 12.05L77.62 12.05L77.62 12.05Q77.59 12.19 77.59 12.31L77.59 12.31L77.59 12.31Q77.59 12.63 77.75 12.80L77.75 12.80L77.75 12.80Q77.91 12.96 78.11 12.98L78.11 12.98L78.11 12.98Q78.30 13.01 78.46 13.06L78.46 13.06L78.46 13.06Q78.62 13.12 78.62 13.26L78.62 13.26L78.62 13.26Q78.62 13.36 78.58 13.40L78.58 13.40L78.58 13.40Q78.54 13.45 78.39 13.45L78.39 13.45L78.39 13.45Q78.30 13.45 77.90 13.45L77.90 13.45L77.90 13.45Q77.50 13.44 77.22 13.44L77.22 13.44L77.22 13.44Q76.92 13.44 76.53 13.47L76.53 13.47L76.53 13.47Q76.15 13.50 76.02 13.50L76.02 13.50L76.02 13.50Q75.61 13.50 75.61 13.33ZM79.13 8.71L79.13 8.71L79.13 8.71Q79.13 8.89 79.25 8.93L79.25 8.93L79.25 8.93Q79.38 8.97 79.84 8.97L79.84 8.97L80.28 8.97L81.61 8.96L81.61 8.96Q82.15 8.96 82.15 8.74L82.15 8.74L82.15 8.74Q82.15 8.55 81.47 7.01L81.47 7.01L81.47 7.01Q80.78 5.46 80.60 5.46L80.60 5.46L80.60 5.46Q80.47 5.46 79.80 7.01L79.80 7.01L79.80 7.01Q79.13 8.55 79.13 8.71ZM93.98 3.71L93.98 3.71L93.98 3.71Q93.98 3.46 94.36 3.46L94.36 3.46L94.36 3.46Q94.42 3.46 94.54 3.47L94.54 3.47L94.54 3.47Q94.67 3.49 94.74 3.49L94.74 3.49L94.74 3.49Q94.88 3.49 95.26 3.51L95.26 3.51L95.26 3.51Q95.65 3.54 95.96 3.54L95.96 3.54L95.96 3.54Q96.39 3.54 96.88 3.51L96.88 3.51L96.88 3.51Q97.37 3.49 97.43 3.49L97.43 3.49L97.43 3.49Q97.66 3.49 97.66 3.63L97.66 3.63L97.66 3.63Q97.66 3.82 97.50 3.88L97.50 3.88L97.50 3.88Q97.33 3.95 97.13 3.97L97.13 3.97L97.13 3.97Q96.92 3.99 96.73 4.28L96.73 4.28L96.73 4.28Q96.54 4.56 96.52 5.14L96.52 5.14L96.52 5.14Q96.49 5.68 96.45 8.19L96.45 8.19L96.45 8.19Q96.40 10.70 96.40 10.99L96.40 10.99L96.40 11.55L96.40 11.55Q96.40 12.56 96.74 12.66L96.74 12.66L96.74 12.66Q97.09 12.77 97.34 12.77L97.34 12.77L97.34 12.77Q98.39 12.77 99.18 12.67L99.18 12.67L99.18 12.67Q99.97 12.57 100.37 12.42L100.37 12.42L100.37 12.42Q100.77 12.28 101.04 12.10L101.04 12.10L101.04 12.10Q101.30 11.93 101.38 11.78L101.38 11.78L101.38 11.78Q101.46 11.63 101.53 11.54L101.53 11.54L101.53 11.54Q101.61 11.44 101.70 11.44L101.70 11.44L101.70 11.44Q101.86 11.44 101.86 11.68L101.86 11.68L101.86 11.68Q101.86 12.28 101.26 12.89L101.26 12.89L101.26 12.89Q100.66 13.51 100.21 13.51L100.21 13.51L100.21 13.51Q99.20 13.51 97.94 13.44L97.94 13.44L97.94 13.44Q96.67 13.37 96.36 13.37L96.36 13.37L96.36 13.37Q95.97 13.37 95.46 13.43L95.46 13.43L95.46 13.43Q94.95 13.48 94.61 13.48L94.61 13.48L94.61 13.48Q94.21 13.48 94.21 13.31L94.21 13.31L94.21 13.31Q94.21 13.22 94.28 13.15L94.28 13.15L94.28 13.15Q94.36 13.09 94.43 13.09L94.43 13.09L94.43 13.09Q94.64 13.09 94.84 12.95L94.84 12.95L94.84 12.95Q95.09 12.75 95.20 12.23L95.20 12.23L95.20 12.23Q95.31 11.70 95.31 10.21L95.31 10.21L95.31 8.47L95.31 8.47Q95.31 8.09 95.33 7.29L95.33 7.29L95.33 7.29Q95.35 6.50 95.35 6.05L95.35 6.05L95.35 6.05Q95.35 5.67 95.33 4.77L95.33 4.77L95.33 4.77Q95.31 4.37 94.98 4.14L94.98 4.14L94.98 4.14Q94.64 3.92 94.19 3.91L94.19 3.91L94.19 3.91Q94.05 3.91 94.02 3.86L94.02 3.86L94.02 3.86Q93.98 3.81 93.98 3.71ZM119.41 5.32L119.41 5.32L119.41 5.32Q119.41 4.76 119.55 3.88L119.55 3.88L119.55 3.88Q119.55 3.85 119.55 3.78L119.55 3.78L119.55 3.78Q119.56 3.71 119.57 3.69L119.57 3.69L119.57 3.69Q119.57 3.67 119.58 3.62L119.58 3.62L119.58 3.62Q119.59 3.57 119.60 3.55L119.60 3.55L119.60 3.55Q119.62 3.53 119.64 3.49L119.64 3.49L119.64 3.49Q119.66 3.46 119.69 3.44L119.69 3.44L119.69 3.44Q119.71 3.43 119.76 3.42L119.76 3.42L119.76 3.42Q119.80 3.40 119.85 3.39L119.85 3.39L119.85 3.39Q119.91 3.39 119.98 3.39L119.98 3.39L119.98 3.39Q120.20 3.39 121.16 3.44L121.16 3.44L121.16 3.44Q122.12 3.50 123.93 3.50L123.93 3.50L123.93 3.50Q127.01 3.50 128.24 3.43L128.24 3.43L128.24 3.43Q128.25 3.43 128.29 3.42L128.29 3.42L128.29 3.42Q128.32 3.42 128.34 3.42L128.34 3.42L128.34 3.42Q128.49 3.42 128.55 3.50L128.55 3.50L128.55 3.50Q128.60 3.58 128.60 3.65L128.60 3.65L128.60 3.65Q128.60 3.75 128.65 4.24L128.65 4.24L128.65 4.24Q128.69 4.73 128.69 4.79L128.69 4.79L128.69 4.79Q128.69 5.14 128.65 5.23L128.65 5.23L128.65 5.23Q128.60 5.32 128.46 5.32L128.46 5.32L128.46 5.32Q128.35 5.32 128.31 5.15L128.31 5.15L128.31 5.15Q128.20 4.75 128.11 4.60L128.11 4.60L128.11 4.60Q128.03 4.45 127.75 4.34L127.75 4.34L127.75 4.34Q127.47 4.23 126.90 4.23L126.90 4.23L125.08 4.23L125.08 4.23Q124.74 4.23 124.66 4.36L124.66 4.36L124.66 4.36Q124.59 4.49 124.59 5.12L124.59 5.12L124.59 5.81L124.59 5.81Q124.59 7.69 124.56 9.11L124.56 9.11L124.56 9.11Q124.54 10.54 124.54 10.93L124.54 10.93L124.54 10.93Q124.54 11.13 124.54 11.43L124.54 11.43L124.54 11.43Q124.53 11.73 124.53 11.84L124.53 11.84L124.53 11.84Q124.53 12.45 124.73 12.64L124.73 12.64L124.73 12.64Q124.91 12.81 125.13 12.90L125.13 12.90L125.13 12.90Q125.36 12.99 125.52 13.01L125.52 13.01L125.52 13.01Q125.68 13.02 125.79 13.08L125.79 13.08L125.79 13.08Q125.90 13.13 125.90 13.26L125.90 13.26L125.90 13.26Q125.90 13.41 125.83 13.45L125.83 13.45L125.83 13.45Q125.76 13.50 125.57 13.50L125.57 13.50L125.57 13.50Q125.40 13.50 124.82 13.44L124.82 13.44L124.82 13.44Q124.25 13.38 124.01 13.38L124.01 13.38L124.01 13.38Q123.84 13.38 123.33 13.43L123.33 13.43L123.33 13.43Q122.82 13.48 122.58 13.48L122.58 13.48L122.58 13.48Q122.07 13.48 122.07 13.26L122.07 13.26L122.07 13.26Q122.07 13.12 122.15 13.07L122.15 13.07L122.15 13.07Q122.23 13.02 122.48 12.98L122.48 12.98L122.48 12.98Q122.72 12.95 122.79 12.94L122.79 12.94L122.79 12.94Q123.27 12.82 123.33 12.38L123.33 12.38L123.33 12.38Q123.47 11.14 123.47 7.08L123.47 7.08L123.45 4.58L123.45 4.58Q123.45 4.31 123.30 4.25L123.30 4.25L123.30 4.25Q123.14 4.19 122.39 4.19L122.39 4.19L122.39 4.19Q121.41 4.19 120.91 4.24L120.91 4.24L120.91 4.24Q120.41 4.30 120.33 4.35L120.33 4.35L120.33 4.35Q120.25 4.40 120.13 4.54L120.13 4.54L120.13 4.54Q120.01 4.70 119.93 4.91L119.93 4.91L119.93 4.91Q119.85 5.11 119.83 5.24L119.83 5.24L119.83 5.24Q119.81 5.38 119.75 5.47L119.75 5.47L119.75 5.47Q119.69 5.56 119.56 5.56L119.56 5.56L119.56 5.56Q119.41 5.56 119.41 5.32ZM136.58 8.69L136.58 8.69L136.58 8.69Q136.58 6.34 138.00 4.84L138.00 4.84L138.00 4.84Q139.41 3.33 142.00 3.33L142.00 3.33L142.00 3.33Q143.21 3.33 144.17 3.68L144.17 3.68L144.17 3.68Q145.14 4.03 145.70 4.54L145.70 4.54L145.70 4.54Q146.26 5.05 146.64 5.71L146.64 5.71L146.64 5.71Q147.01 6.37 147.15 6.92L147.15 6.92L147.15 6.92Q147.29 7.48 147.29 7.95L147.29 7.95L147.29 7.95Q147.29 9.86 146.55 11.16L146.55 11.16L146.55 11.16Q145.81 12.47 144.60 13.07L144.60 13.07L144.60 13.07Q143.39 13.66 141.81 13.66L141.81 13.66L141.81 13.66Q140.14 13.66 138.93 12.94L138.93 12.94L138.93 12.94Q137.72 12.21 137.15 11.10L137.15 11.10L137.15 11.10Q136.58 10.00 136.58 8.69ZM137.82 7.98L137.82 7.98L137.82 7.98Q137.82 8.54 137.97 9.19L137.97 9.19L137.97 9.19Q138.12 9.84 138.47 10.54L138.47 10.54L138.47 10.54Q138.82 11.23 139.32 11.78L139.32 11.78L139.32 11.78Q139.82 12.33 140.58 12.69L140.58 12.69L140.58 12.69Q141.34 13.05 142.25 13.05L142.25 13.05L142.25 13.05Q142.73 13.05 143.26 12.90L143.26 12.90L143.26 12.90Q143.78 12.75 144.30 12.45L144.30 12.45L144.30 12.45Q144.82 12.14 145.22 11.70L145.22 11.70L145.22 11.70Q145.63 11.26 145.89 10.62L145.89 10.62L145.89 10.62Q146.15 9.98 146.15 9.24L146.15 9.24L146.15 9.24Q146.15 6.71 144.82 5.30L144.82 5.30L144.82 5.30Q143.49 3.89 141.53 3.89L141.53 3.89L141.53 3.89Q139.99 3.89 138.90 4.93L138.90 4.93L138.90 4.93Q137.82 5.96 137.82 7.98ZM155.53 8.69L155.53 8.69L155.53 8.69Q155.53 6.34 156.94 4.84L156.94 4.84L156.94 4.84Q158.35 3.33 160.94 3.33L160.94 3.33L160.94 3.33Q162.15 3.33 163.11 3.68L163.11 3.68L163.11 3.68Q164.08 4.03 164.64 4.54L164.64 4.54L164.64 4.54Q165.20 5.05 165.58 5.71L165.58 5.71L165.58 5.71Q165.96 6.37 166.10 6.92L166.10 6.92L166.10 6.92Q166.24 7.48 166.24 7.95L166.24 7.95L166.24 7.95Q166.24 9.86 165.49 11.16L165.49 11.16L165.49 11.16Q164.75 12.47 163.54 13.07L163.54 13.07L163.54 13.07Q162.33 13.66 160.75 13.66L160.75 13.66L160.75 13.66Q159.08 13.66 157.87 12.94L157.87 12.94L157.87 12.94Q156.66 12.21 156.09 11.10L156.09 11.10L156.09 11.10Q155.53 10.00 155.53 8.69ZM156.76 7.98L156.76 7.98L156.76 7.98Q156.76 8.54 156.91 9.19L156.91 9.19L156.91 9.19Q157.07 9.84 157.42 10.54L157.42 10.54L157.42 10.54Q157.77 11.23 158.26 11.78L158.26 11.78L158.26 11.78Q158.76 12.33 159.52 12.69L159.52 12.69L159.52 12.69Q160.29 13.05 161.20 13.05L161.20 13.05L161.20 13.05Q161.67 13.05 162.20 12.90L162.20 12.90L162.20 12.90Q162.72 12.75 163.24 12.45L163.24 12.45L163.24 12.45Q163.76 12.14 164.16 11.70L164.16 11.70L164.16 11.70Q164.57 11.26 164.83 10.62L164.83 10.62L164.83 10.62Q165.09 9.98 165.09 9.24L165.09 9.24L165.09 9.24Q165.09 6.71 163.76 5.30L163.76 5.30L163.76 5.30Q162.43 3.89 160.47 3.89L160.47 3.89L160.47 3.89Q158.93 3.89 157.84 4.93L157.84 4.93L157.84 4.93Q156.76 5.96 156.76 7.98ZM174.13 3.71L174.13 3.71L174.13 3.71Q174.13 3.46 174.51 3.46L174.51 3.46L174.51 3.46Q174.57 3.46 174.69 3.47L174.69 3.47L174.69 3.47Q174.82 3.49 174.89 3.49L174.89 3.49L174.89 3.49Q175.03 3.49 175.41 3.51L175.41 3.51L175.41 3.51Q175.80 3.54 176.11 3.54L176.11 3.54L176.11 3.54Q176.54 3.54 177.03 3.51L177.03 3.51L177.03 3.51Q177.52 3.49 177.58 3.49L177.58 3.49L177.58 3.49Q177.81 3.49 177.81 3.63L177.81 3.63L177.81 3.63Q177.81 3.82 177.65 3.88L177.65 3.88L177.65 3.88Q177.48 3.95 177.28 3.97L177.28 3.97L177.28 3.97Q177.07 3.99 176.88 4.28L176.88 4.28L176.88 4.28Q176.69 4.56 176.67 5.14L176.67 5.14L176.67 5.14Q176.64 5.68 176.60 8.19L176.60 8.19L176.60 8.19Q176.55 10.70 176.55 10.99L176.55 10.99L176.55 11.55L176.55 11.55Q176.55 12.56 176.89 12.66L176.89 12.66L176.89 12.66Q177.24 12.77 177.49 12.77L177.49 12.77L177.49 12.77Q178.54 12.77 179.33 12.67L179.33 12.67L179.33 12.67Q180.12 12.57 180.52 12.42L180.52 12.42L180.52 12.42Q180.92 12.28 181.19 12.10L181.19 12.10L181.19 12.10Q181.45 11.93 181.53 11.78L181.53 11.78L181.53 11.78Q181.61 11.63 181.69 11.54L181.69 11.54L181.69 11.54Q181.76 11.44 181.85 11.44L181.85 11.44L181.85 11.44Q182.01 11.44 182.01 11.68L182.01 11.68L182.01 11.68Q182.01 12.28 181.41 12.89L181.41 12.89L181.41 12.89Q180.81 13.51 180.36 13.51L180.36 13.51L180.36 13.51Q179.35 13.51 178.09 13.44L178.09 13.44L178.09 13.44Q176.82 13.37 176.51 13.37L176.51 13.37L176.51 13.37Q176.12 13.37 175.61 13.43L175.61 13.43L175.61 13.43Q175.10 13.48 174.76 13.48L174.76 13.48L174.76 13.48Q174.36 13.48 174.36 13.31L174.36 13.31L174.36 13.31Q174.36 13.22 174.43 13.15L174.43 13.15L174.43 13.15Q174.51 13.09 174.58 13.09L174.58 13.09L174.58 13.09Q174.79 13.09 174.99 12.95L174.99 12.95L174.99 12.95Q175.24 12.75 175.35 12.23L175.35 12.23L175.35 12.23Q175.46 11.70 175.46 10.21L175.46 10.21L175.46 8.47L175.46 8.47Q175.46 8.09 175.48 7.29L175.48 7.29L175.48 7.29Q175.50 6.50 175.50 6.05L175.50 6.05L175.50 6.05Q175.50 5.67 175.48 4.77L175.48 4.77L175.48 4.77Q175.46 4.37 175.13 4.14L175.13 4.14L175.13 4.14Q174.79 3.92 174.34 3.91L174.34 3.91L174.34 3.91Q174.20 3.91 174.17 3.86L174.17 3.86L174.17 3.86Q174.13 3.81 174.13 3.71ZM190.12 10.82L190.12 10.82L190.12 10.82Q190.12 10.53 190.32 10.53L190.32 10.53L190.32 10.53Q190.50 10.53 190.54 10.67L190.54 10.67L190.54 10.67Q190.68 11.00 190.80 11.25L190.80 11.25L190.80 11.25Q190.92 11.49 191.18 11.85L191.18 11.85L191.18 11.85Q191.45 12.21 191.76 12.44L191.76 12.44L191.76 12.44Q192.07 12.67 192.55 12.84L192.55 12.84L192.55 12.84Q193.03 13.01 193.61 13.01L193.61 13.01L193.61 13.01Q194.66 13.01 195.29 12.45L195.29 12.45L195.29 12.45Q195.93 11.90 195.93 11.00L195.93 11.00L195.93 11.00Q195.93 10.35 195.50 9.90L195.50 9.90L195.50 9.90Q195.06 9.46 194.50 9.27L194.50 9.27L194.50 9.27Q193.94 9.09 193.08 8.77L193.08 8.77L193.08 8.77Q192.22 8.46 191.67 8.13L191.67 8.13L191.67 8.13Q190.40 7.38 190.40 6.08L190.40 6.08L190.40 6.08Q190.40 4.83 191.30 4.08L191.30 4.08L191.30 4.08Q192.21 3.33 193.65 3.33L193.65 3.33L193.65 3.33Q194.18 3.33 194.92 3.56L194.92 3.56L194.92 3.56Q195.65 3.79 195.66 3.79L195.66 3.79L195.66 3.79Q195.71 3.79 195.82 3.74L195.82 3.74L195.82 3.74Q195.93 3.68 195.99 3.68L195.99 3.68L195.99 3.68Q196.17 3.68 196.20 3.79L196.20 3.79L196.20 3.79Q196.49 5.49 196.49 5.70L196.49 5.70L196.49 5.70Q196.49 6.09 196.29 6.09L196.29 6.09L196.29 6.09Q196.17 6.09 196.10 5.89L196.10 5.89L196.10 5.89Q195.93 5.49 195.77 5.24L195.77 5.24L195.77 5.24Q195.61 4.98 195.54 4.91L195.54 4.91L195.54 4.91Q195.47 4.84 195.17 4.58L195.17 4.58L195.17 4.58Q194.42 3.91 193.34 3.91L193.34 3.91L193.34 3.91Q192.47 3.91 191.88 4.33L191.88 4.33L191.88 4.33Q191.30 4.75 191.30 5.46L191.30 5.46L191.30 5.46Q191.30 6.09 191.64 6.50L191.64 6.50L191.64 6.50Q191.98 6.90 192.56 7.13L192.56 7.13L192.56 7.13Q193.13 7.35 193.76 7.55L193.76 7.55L193.76 7.55Q194.39 7.74 195.10 8.09L195.10 8.09L195.10 8.09Q195.80 8.44 196.27 8.93L196.27 8.93L196.27 8.93Q196.83 9.53 196.83 10.43L196.83 10.43L196.83 10.43Q196.83 11.90 195.89 12.76L195.89 12.76L195.89 12.76Q194.95 13.62 193.56 13.62L193.56 13.62L193.56 13.62Q192.60 13.62 192.01 13.52L192.01 13.52L192.01 13.52Q191.42 13.41 190.81 13.09L190.81 13.09L190.81 13.09Q190.62 12.98 190.37 12.00L190.37 12.00L190.37 12.00Q190.12 11.02 190.12 10.82Z"></path></g></svg>