<svg data-v-423bf9ae="" xmlns="http://www.w3.org/2000/svg" viewBox="0 0 250.32070241589153 60" class="font"><!----><!----><!----><g data-v-423bf9ae="" id="29fbab07-418d-46bd-be69-9ce8d9a2eef3" fill="white" transform="matrix(5.830903811703725,0,0,5.830903811703725,-1.4577263613111455,-0.2915449260787142)"><path d="M9.03 10.19L6.80 10.19L4.38 5.82L2.93 6.66L2.24 10.19L0.25 10.19L2.11 0.56L4.13 0.56L3.24 4.93L8.44 0.56L10.96 0.56L5.85 4.77L9.03 10.19ZM17.49 9.05L17.39 10.11L17.39 10.11Q17.10 10.22 16.81 10.24L16.81 10.24L16.81 10.24Q16.52 10.26 16.21 10.26L16.21 10.26L16.21 10.26Q15.52 10.26 15.16 9.97L15.16 9.97L15.16 9.97Q14.79 9.69 14.79 9.21L14.79 9.21L14.79 9.21Q14.79 9.11 14.79 9.00L14.79 9.00L14.79 9.00Q14.80 8.89 14.82 8.78L14.82 8.78L14.78 8.78L14.78 8.78Q14.55 9.14 14.31 9.43L14.31 9.43L14.31 9.43Q14.07 9.71 13.78 9.92L13.78 9.92L13.78 9.92Q13.49 10.12 13.13 10.22L13.13 10.22L13.13 10.22Q12.76 10.33 12.28 10.33L12.28 10.33L12.28 10.33Q11.74 10.33 11.35 10.16L11.35 10.16L11.35 10.16Q10.96 9.99 10.70 9.70L10.70 9.70L10.70 9.70Q10.44 9.42 10.31 9.05L10.31 9.05L10.31 9.05Q10.18 8.68 10.18 8.29L10.18 8.29L10.18 8.29Q10.18 7.74 10.33 7.33L10.33 7.33L10.33 7.33Q10.49 6.93 10.75 6.64L10.75 6.64L10.75 6.64Q11.02 6.36 11.38 6.18L11.38 6.18L11.38 6.18Q11.74 6.00 12.15 5.89L12.15 5.89L12.15 5.89Q12.56 5.79 13.00 5.75L13.00 5.75L13.00 5.75Q13.45 5.71 13.88 5.70L13.88 5.70L15.18 5.68L15.24 5.43L15.24 5.43Q15.29 5.23 15.31 5.08L15.31 5.08L15.31 5.08Q15.33 4.92 15.33 4.79L15.33 4.79L15.33 4.79Q15.33 4.33 15.09 4.12L15.09 4.12L15.09 4.12Q14.86 3.91 14.46 3.91L14.46 3.91L14.46 3.91Q14.26 3.91 14.05 3.94L14.05 3.94L14.05 3.94Q13.84 3.96 13.65 4.06L13.65 4.06L13.65 4.06Q13.46 4.16 13.31 4.36L13.31 4.36L13.31 4.36Q13.15 4.55 13.07 4.88L13.07 4.88L11.27 4.67L11.27 4.67Q11.38 4.21 11.63 3.84L11.63 3.84L11.63 3.84Q11.87 3.47 12.27 3.21L12.27 3.21L12.27 3.21Q12.67 2.95 13.22 2.80L13.22 2.80L13.22 2.80Q13.77 2.66 14.49 2.66L14.49 2.66L14.49 2.66Q15.91 2.66 16.57 3.16L16.57 3.16L16.57 3.16Q17.23 3.66 17.23 4.68L17.23 4.68L17.23 4.68Q17.23 4.89 17.17 5.18L17.17 5.18L17.17 5.18Q17.12 5.48 17.06 5.75L17.06 5.75L16.58 8.16L16.58 8.16Q16.56 8.28 16.54 8.41L16.54 8.41L16.54 8.41Q16.52 8.54 16.52 8.65L16.52 8.65L16.52 8.65Q16.52 8.82 16.59 8.91L16.59 8.91L16.59 8.91Q16.66 9.00 16.75 9.04L16.75 9.04L16.75 9.04Q16.84 9.08 16.93 9.09L16.93 9.09L16.93 9.09Q17.01 9.10 17.06 9.10L17.06 9.10L17.06 9.10Q17.16 9.10 17.24 9.09L17.24 9.09L17.24 9.09Q17.33 9.08 17.49 9.05L17.49 9.05ZM14.82 7.38L14.97 6.75L13.86 6.75L13.86 6.75Q13.06 6.77 12.60 7.08L12.60 7.08L12.60 7.08Q12.14 7.40 12.14 7.97L12.14 7.97L12.14 7.97Q12.14 8.24 12.22 8.43L12.22 8.43L12.22 8.43Q12.30 8.63 12.44 8.75L12.44 8.75L12.44 8.75Q12.58 8.87 12.76 8.93L12.76 8.93L12.76 8.93Q12.94 8.99 13.14 8.99L13.14 8.99L13.14 8.99Q13.34 8.99 13.58 8.91L13.58 8.91L13.58 8.91Q13.82 8.83 14.06 8.65L14.06 8.65L14.06 8.65Q14.29 8.46 14.50 8.15L14.50 8.15L14.50 8.15Q14.70 7.84 14.82 7.38L14.82 7.38ZM21.75 1.46L19.82 1.46L20.10 0.05L22.03 0.05L21.75 1.46ZM20.05 10.19L18.14 10.19L19.57 2.80L21.49 2.80L20.05 10.19ZM27.87 2.75L27.56 4.36L27.56 4.36Q27.40 4.33 27.22 4.29L27.22 4.29L27.22 4.29Q27.04 4.26 26.78 4.26L26.78 4.26L26.78 4.26Q25.94 4.26 25.41 4.85L25.41 4.85L25.41 4.85Q24.88 5.45 24.64 6.68L24.64 6.68L23.95 10.19L22.03 10.19L23.13 4.52L23.13 4.52Q23.17 4.28 23.21 4.04L23.21 4.04L23.21 4.04Q23.26 3.80 23.29 3.58L23.29 3.58L23.29 3.58Q23.33 3.35 23.36 3.15L23.36 3.15L23.36 3.15Q23.39 2.95 23.41 2.80L23.41 2.80L25.25 2.80L25.25 2.80Q25.22 2.95 25.20 3.15L25.20 3.15L25.20 3.15Q25.18 3.36 25.15 3.57L25.15 3.57L25.15 3.57Q25.12 3.78 25.09 3.98L25.09 3.98L25.09 3.98Q25.06 4.17 25.04 4.31L25.04 4.31L25.07 4.31L25.07 4.31Q25.30 3.88 25.53 3.57L25.53 3.57L25.53 3.57Q25.76 3.26 26.01 3.06L26.01 3.06L26.01 3.06Q26.26 2.86 26.54 2.76L26.54 2.76L26.54 2.76Q26.82 2.66 27.17 2.66L27.17 2.66L27.17 2.66Q27.25 2.66 27.35 2.67L27.35 2.67L27.35 2.67Q27.45 2.68 27.55 2.69L27.55 2.69L27.55 2.69Q27.64 2.71 27.73 2.72L27.73 2.72L27.73 2.72Q27.82 2.74 27.87 2.75L27.87 2.75ZM32.38 9.10L32.35 9.10L32.35 9.10Q32.11 9.42 31.85 9.65L31.85 9.65L31.85 9.65Q31.59 9.88 31.30 10.04L31.30 10.04L31.30 10.04Q31.01 10.19 30.67 10.26L30.67 10.26L30.67 10.26Q30.32 10.34 29.91 10.34L29.91 10.34L29.91 10.34Q29.37 10.34 28.94 10.14L28.94 10.14L28.94 10.14Q28.51 9.95 28.22 9.61L28.22 9.61L28.22 9.61Q27.93 9.27 27.78 8.80L27.78 8.80L27.78 8.80Q27.63 8.33 27.63 7.77L27.63 7.77L27.63 7.77Q27.63 7.46 27.66 7.11L27.66 7.11L27.66 7.11Q27.69 6.75 27.77 6.32L27.77 6.32L27.77 6.32Q27.97 5.35 28.30 4.66L28.30 4.66L28.30 4.66Q28.63 3.96 29.07 3.52L29.07 3.52L29.07 3.52Q29.51 3.08 30.05 2.87L30.05 2.87L30.05 2.87Q30.59 2.66 31.20 2.66L31.20 2.66L31.20 2.66Q31.70 2.66 32.06 2.77L32.06 2.77L32.06 2.77Q32.43 2.87 32.69 3.06L32.69 3.06L32.69 3.06Q32.94 3.24 33.10 3.49L33.10 3.49L33.10 3.49Q33.26 3.73 33.35 4.01L33.35 4.01L33.38 4.01L33.38 4.01Q33.39 3.88 33.43 3.60L33.43 3.60L33.43 3.60Q33.48 3.33 33.56 2.91L33.56 2.91L34.13 0.05L36.03 0.05L34.40 8.61L34.40 8.61Q34.32 9.03 34.28 9.43L34.28 9.43L34.28 9.43Q34.23 9.82 34.20 10.19L34.20 10.19L32.28 10.19L32.28 10.19Q32.28 10.14 32.28 10.03L32.28 10.03L32.28 10.03Q32.29 9.92 32.30 9.77L32.30 9.77L32.30 9.77Q32.31 9.62 32.33 9.45L32.33 9.45L32.33 9.45Q32.35 9.28 32.38 9.10L32.38 9.10ZM30.75 9.02L30.75 9.02L30.75 9.02Q31.12 9.02 31.44 8.90L31.44 8.90L31.44 8.90Q31.77 8.79 32.04 8.51L32.04 8.51L32.04 8.51Q32.31 8.24 32.53 7.77L32.53 7.77L32.53 7.77Q32.74 7.30 32.87 6.59L32.87 6.59L32.87 6.59Q32.93 6.29 32.96 6.03L32.96 6.03L32.96 6.03Q32.99 5.76 32.99 5.54L32.99 5.54L32.99 5.54Q32.99 4.72 32.67 4.34L32.67 4.34L32.67 4.34Q32.35 3.97 31.71 3.97L31.71 3.97L31.71 3.97Q31.38 3.97 31.09 4.08L31.09 4.08L31.09 4.08Q30.80 4.19 30.55 4.46L30.55 4.46L30.55 4.46Q30.30 4.73 30.11 5.19L30.11 5.19L30.11 5.19Q29.91 5.64 29.78 6.33L29.78 6.33L29.78 6.33Q29.72 6.68 29.69 6.96L29.69 6.96L29.69 6.96Q29.66 7.25 29.66 7.51L29.66 7.51L29.66 7.51Q29.66 8.23 29.92 8.62L29.92 8.62L29.92 8.62Q30.18 9.02 30.75 9.02ZM43.02 6.94L38.23 6.94L38.23 6.94Q38.21 7.09 38.20 7.24L38.20 7.24L38.20 7.24Q38.19 7.39 38.19 7.55L38.19 7.55L38.19 7.55Q38.19 8.27 38.50 8.66L38.50 8.66L38.50 8.66Q38.82 9.04 39.44 9.04L39.44 9.04L39.44 9.04Q39.73 9.04 39.96 8.96L39.96 8.96L39.96 8.96Q40.18 8.87 40.36 8.71L40.36 8.71L40.36 8.71Q40.54 8.56 40.67 8.35L40.67 8.35L40.67 8.35Q40.80 8.13 40.90 7.89L40.90 7.89L42.57 8.39L42.57 8.39Q42.37 8.83 42.11 9.19L42.11 9.19L42.11 9.19Q41.85 9.55 41.47 9.80L41.47 9.80L41.47 9.80Q41.10 10.06 40.57 10.19L40.57 10.19L40.57 10.19Q40.04 10.33 39.31 10.33L39.31 10.33L39.31 10.33Q38.56 10.33 37.98 10.12L37.98 10.12L37.98 10.12Q37.41 9.91 37.01 9.52L37.01 9.52L37.01 9.52Q36.62 9.13 36.42 8.57L36.42 8.57L36.42 8.57Q36.22 8.02 36.22 7.33L36.22 7.33L36.22 7.33Q36.22 6.21 36.51 5.35L36.51 5.35L36.51 5.35Q36.81 4.48 37.34 3.88L37.34 3.88L37.34 3.88Q37.87 3.28 38.60 2.97L38.60 2.97L38.60 2.97Q39.33 2.66 40.20 2.66L40.20 2.66L40.20 2.66Q40.97 2.66 41.53 2.86L41.53 2.86L41.53 2.86Q42.09 3.07 42.46 3.44L42.46 3.44L42.46 3.44Q42.83 3.81 43.00 4.33L43.00 4.33L43.00 4.33Q43.18 4.85 43.18 5.47L43.18 5.47L43.18 5.47Q43.18 5.78 43.14 6.18L43.14 6.18L43.14 6.18Q43.09 6.58 43.02 6.94L43.02 6.94ZM38.46 5.66L41.41 5.66L41.41 5.66Q41.42 5.55 41.42 5.46L41.42 5.46L41.42 5.46Q41.43 5.37 41.43 5.28L41.43 5.28L41.43 5.28Q41.43 4.55 41.09 4.21L41.09 4.21L41.09 4.21Q40.75 3.88 40.20 3.88L40.20 3.88L40.20 3.88Q39.97 3.88 39.71 3.95L39.71 3.95L39.71 3.95Q39.45 4.03 39.21 4.23L39.21 4.23L39.21 4.23Q38.96 4.43 38.77 4.77L38.77 4.77L38.77 4.77Q38.58 5.12 38.46 5.66L38.46 5.66Z"></path></g><!----><!----></svg>